# xmcd
#
# Track frame offsets:
#	150
#	17409
#	36206
#	56316
#	70709
#	90096
#	103041
#	120125
#	137819
#	155126
#	169996
#	183734
#	201138
#	215871
#	229648
#	245410
#	259678
#	275662
#
# Disc length: 3872
#
# Revision: 1
# Processed by: cddbd v1.5.1PL0 Copyright (c) Steve Scherf et al.
# Submitted via: VisiTrax 2.9.5.180 - For more info visit www.synapsa.com
# Normalized: r0:DSETVAR1
#
DISCID=f80f1e12
DTITLE=Various Artist - CDX 272 August 2001
DYEAR=2001
DGENRE=
TTITLE0=Blake Shelton - Austin
TTITLE1=Sannon Brown - Baby I lied
TTITLE2=Chris Knight - Becky's bible
TTITLE3=Junior Brown - Cage Bea
TTITLE4=Pat Green - Carry on
TTITLE5=Hal Ketchum - Don't let go
TTITLE6=Billy Gillman - Elisabeth
TTITLE7=Britney Cleary - I,M me
TTITLE8=Tracy Byrd - Just let me be in love
TTITLE9=Tracy Lawrence - Life don't have to be so hard
TTITLE10=Gene Watson - Next to nothin'
TTITLE11=Emerson Drive - Only God (could stop me loving you)
TTITLE12=Jeffrey Steele - Somethin' in the water
TTITLE13=Mary Chapin Carpenter - This is me leaving you
TTITLE14=Rascal Flatts - While you loved me
TTITLE15=Brad Paisley - Wrapped around
TTITLE16=Rebel Hearts/Darren Castle - Daddy's dream
TTITLE17=Vince Hatfield - I'm a drifter
EXTD=
EXTT0=
EXTT1=
EXTT2=
EXTT3=
EXTT4=
EXTT5=
EXTT6=
EXTT7=
EXTT8=
EXTT9=
EXTT10=
EXTT11=
EXTT12=
EXTT13=
EXTT14=
EXTT15=
EXTT16=
EXTT17=
PLAYORDER=
